<svg id="visual" viewBox="0 0 960 540" width="960" height="540" xmlns="http://www.w3.org/2000/svg" xmlns:xlink="http://www.w3.org/1999/xlink" version="1.1"><path d="M0 66L32 75.8C64 85.7 128 105.3 192 108C256 110.7 320 96.3 384 88.3C448 80.3 512 78.7 576 82.3C640 86 704 95 768 96.7C832 98.3 896 92.7 928 89.8L960 87L960 0L928 0C896 0 832 0 768 0C704 0 640 0 576 0C512 0 448 0 384 0C320 0 256 0 192 0C128 0 64 0 32 0L0 0Z" fill="#477db5"></path><path d="M0 222L32 233.8C64 245.7 128 269.3 192 253.2C256 237 320 181 384 160.2C448 139.3 512 153.7 576 176.2C640 198.7 704 229.3 768 237.5C832 245.7 896 231.3 928 224.2L960 217L960 85L928 87.8C896 90.7 832 96.3 768 94.7C704 93 640 84 576 80.3C512 76.7 448 78.3 384 86.3C320 94.3 256 108.7 192 106C128 103.3 64 83.7 32 73.8L0 64Z" fill="#5b9bdb"></path><path d="M0 411L32 409.3C64 407.7 128 404.3 192 405.3C256 406.3 320 411.7 384 403.5C448 395.3 512 373.7 576 371.8C640 370 704 388 768 405.2C832 422.3 896 438.7 928 446.8L960 455L960 215L928 222.2C896 229.3 832 243.7 768 235.5C704 227.3 640 196.7 576 174.2C512 151.7 448 137.3 384 158.2C320 179 256 235 192 251.2C128 267.3 64 243.7 32 231.8L0 220Z" fill="#77b4f0"></path><path d="M0 541L32 541C64 541 128 541 192 541C256 541 320 541 384 541C448 541 512 541 576 541C640 541 704 541 768 541C832 541 896 541 928 541L960 541L960 453L928 444.8C896 436.7 832 420.3 768 403.2C704 386 640 368 576 369.8C512 371.7 448 393.3 384 401.5C320 409.7 256 404.3 192 403.3C128 402.3 64 405.7 32 407.3L0 409Z" fill="#98c5f3"></path></svg>